<?xml version="1.0" encoding="utf-8"?>
<!-- Generator: Adobe Illustrator 26.0.1, SVG Export Plug-In . SVG Version: 6.00 Build 0)  -->
<svg version="1.1" id="Layer_1" xmlns="http://www.w3.org/2000/svg" xmlns:xlink="http://www.w3.org/1999/xlink" x="0px" y="0px"
	 viewBox="0 0 18.94 19.78" style="enable-background:new 0 0 18.94 19.78;" xml:space="preserve">
<g>
	<rect x="0.26" y="16.62" width="18.42" height="2.95"/>
	<polygon points="6.88,16.64 6.9,16.62 3.53,13.35 0.26,16.73 0.28,16.75 	"/>
	<polygon points="12.77,16.67 12.79,16.64 9.42,13.38 6.15,16.75 6.17,16.77 	"/>
	<polygon points="18.66,16.67 18.68,16.64 15.31,13.38 12.04,16.75 12.07,16.77 	"/>
	<rect x="0.26" y="8.82" transform="matrix(-1 -5.993218e-11 5.993218e-11 -1 18.9413 20.2969)" width="18.42" height="2.65"/>
	<polygon points="9.16,11.43 9.13,11.45 12.51,14.72 15.77,11.35 15.75,11.33 	"/>
	<polygon points="3.26,11.41 3.24,11.43 6.61,14.7 9.88,11.32 9.86,11.3 	"/>
	<polygon points="18.68,11.34 14.76,11.4 14.74,11.43 18.11,14.7 18.68,14.11 	"/>
	<polygon points="3.97,11.3 0.26,11.36 0.26,14.25 0.72,14.7 3.99,11.32 	"/>
	<rect x="3.58" y="3.21" width="1.69" height="5.73"/>
	<rect x="8.62" y="3.21" width="1.69" height="5.73"/>
	<rect x="13.67" y="3.21" width="1.69" height="5.73"/>
	<ellipse cx="4.43" cy="1.48" rx="0.67" ry="1.3"/>
	<ellipse cx="9.47" cy="1.48" rx="0.67" ry="1.3"/>
	<ellipse cx="14.52" cy="1.48" rx="0.67" ry="1.3"/>
</g>
</svg>
