<?xml version="1.0" encoding="utf-8"?>
<!-- Generator: Adobe Illustrator 26.0.1, SVG Export Plug-In . SVG Version: 6.00 Build 0)  -->
<svg version="1.1" id="Layer_1" xmlns="http://www.w3.org/2000/svg" xmlns:xlink="http://www.w3.org/1999/xlink" x="0px" y="0px"
	 viewBox="0 0 19.43 20.36" style="enable-background:new 0 0 19.43 20.36;" xml:space="preserve">
<style type="text/css">
	.st0{fill:#010202;}
	.st1{fill:#FFFFFF;stroke:#000000;stroke-miterlimit:10;}
	.st2{fill:#010202;stroke:#000000;stroke-miterlimit:10;}
</style>
<path class="st0" d="M18.67,6.99H0.72V3.12c0-0.51,0.42-0.93,0.93-0.93h16.09c0.51,0,0.93,0.42,0.93,0.93V6.99z"/>
<path class="st0" d="M4.7,2.19h-0.9c-0.3,0-0.55-0.24-0.55-0.55v-0.9c0-0.3,0.24-0.55,0.55-0.55h0.9c0.3,0,0.55,0.24,0.55,0.55v0.9
	C5.25,1.94,5.01,2.19,4.7,2.19z"/>
<path class="st0" d="M15.93,2.19h-0.9c-0.3,0-0.55-0.24-0.55-0.55v-0.9c0-0.3,0.24-0.55,0.55-0.55h0.9c0.3,0,0.55,0.24,0.55,0.55
	v0.9C16.48,1.94,16.23,2.19,15.93,2.19z"/>
<path class="st1" d="M17.62,2.19H1.77c-0.58,0-1.06,0.47-1.06,1.06v15.38c0,0.58,0.47,1.06,1.06,1.06h15.84
	c0.58,0,1.06-0.47,1.06-1.06V3.24C18.67,2.66,18.2,2.19,17.62,2.19z M17.71,18.67H1.54L1.61,5.91h16.09V18.67z"/>
<path class="st2" d="M17.07,5.63H2.29c-0.67,0-1.21-0.54-1.21-1.21V3.66c0-0.67,0.54-1.21,1.21-1.21h14.78
	c0.67,0,1.21,0.54,1.21,1.21v0.75C18.28,5.09,17.74,5.63,17.07,5.63z"/>
<path class="st0" d="M10.04,11.5H9.35c-0.28,0-0.5-0.22-0.5-0.5v-0.69c0-0.28,0.22-0.5,0.5-0.5h0.69c0.28,0,0.5,0.22,0.5,0.5V11
	C10.54,11.27,10.32,11.5,10.04,11.5z"/>
<path class="st0" d="M13.82,11.5h-0.69c-0.28,0-0.5-0.22-0.5-0.5v-0.69c0-0.28,0.22-0.5,0.5-0.5h0.69c0.28,0,0.5,0.22,0.5,0.5V11
	C14.32,11.27,14.1,11.5,13.82,11.5z"/>
<path class="st0" d="M6.12,11.5H5.43c-0.28,0-0.5-0.22-0.5-0.5v-0.69c0-0.28,0.22-0.5,0.5-0.5h0.69c0.28,0,0.5,0.22,0.5,0.5V11
	C6.62,11.27,6.4,11.5,6.12,11.5z"/>
<path class="st0" d="M6.12,14.82H5.43c-0.28,0-0.5-0.22-0.5-0.5v-0.69c0-0.28,0.22-0.5,0.5-0.5h0.69c0.28,0,0.5,0.22,0.5,0.5v0.69
	C6.62,14.6,6.4,14.82,6.12,14.82z"/>
<path class="st0" d="M10.02,14.82H9.33c-0.28,0-0.5-0.22-0.5-0.5v-0.69c0-0.28,0.22-0.5,0.5-0.5h0.69c0.28,0,0.5,0.22,0.5,0.5v0.69
	C10.52,14.6,10.3,14.82,10.02,14.82z"/>
<path class="st0" d="M13.82,14.82h-0.69c-0.28,0-0.5-0.22-0.5-0.5v-0.69c0-0.28,0.22-0.5,0.5-0.5h0.69c0.28,0,0.5,0.22,0.5,0.5v0.69
	C14.32,14.6,14.1,14.82,13.82,14.82z"/>
</svg>
