<?xml version="1.0" encoding="utf-8"?>
<!-- Generator: Adobe Illustrator 26.0.1, SVG Export Plug-In . SVG Version: 6.00 Build 0)  -->
<svg version="1.1" id="Layer_1" xmlns="http://www.w3.org/2000/svg" xmlns:xlink="http://www.w3.org/1999/xlink" x="0px" y="0px"
	 viewBox="0 0 24.64 19.36" style="enable-background:new 0 0 24.64 19.36;" xml:space="preserve">
<path d="M22.29,12.55H5.47c-0.15,0-0.27-0.09-0.3-0.22L3.2,1.58c0,0,0,0,0,0h20.65c0.37,0,0.65,0.3,0.59,0.62l-1.86,10.12
	C22.56,12.45,22.44,12.55,22.29,12.55z"/>
<rect x="5.4" y="12.07" transform="matrix(0.9883 -0.1523 0.1523 0.9883 -2.031 1.0706)" width="1.15" height="3.44"/>
<circle cx="6.39" cy="17.46" r="1.72"/>
<path d="M4.37,1.58H0.66c-0.23,0-0.41-0.19-0.41-0.43v-0.6c0-0.22,0.17-0.39,0.38-0.39H3.7c0.21,0,0.41,0.17,0.46,0.39L4.37,1.58z"
	/>
<path d="M21.89,16.22H5.94c-0.16,0-0.3-0.13-0.3-0.3v-0.68c0-0.16,0.13-0.3,0.3-0.3h15.95c0.16,0,0.3,0.13,0.3,0.3v0.68
	C22.19,16.08,22.06,16.22,21.89,16.22z"/>
<circle cx="21.25" cy="17.46" r="1.72"/>
</svg>
