<?xml version="1.0" encoding="utf-8"?>
<!-- Generator: Adobe Illustrator 26.0.1, SVG Export Plug-In . SVG Version: 6.00 Build 0)  -->
<svg version="1.1" id="Layer_1" xmlns="http://www.w3.org/2000/svg" xmlns:xlink="http://www.w3.org/1999/xlink" x="0px" y="0px"
	 viewBox="0 0 14.37 14.3" style="enable-background:new 0 0 14.37 14.3;" xml:space="preserve">
<path d="M13.89,13.49l-0.26,0.26c-0.33,0.33-0.86,0.33-1.18,0L0.63,1.93C0.3,1.6,0.3,1.07,0.63,0.74l0.26-0.26
	c0.33-0.33,0.86-0.33,1.18,0L13.89,12.3C14.22,12.63,14.22,13.16,13.89,13.49z"/>
<path d="M0.63,13.49l0.26,0.26c0.33,0.33,0.86,0.33,1.18,0L13.89,1.93c0.33-0.33,0.33-0.86,0-1.18l-0.26-0.26
	c-0.33-0.33-0.86-0.33-1.18,0L0.63,12.3C0.3,12.63,0.3,13.16,0.63,13.49z"/>
</svg>
