<?xml version="1.0" encoding="utf-8"?>
<!-- Generator: Adobe Illustrator 26.0.1, SVG Export Plug-In . SVG Version: 6.00 Build 0)  -->
<svg version="1.1" id="Layer_1" xmlns="http://www.w3.org/2000/svg" xmlns:xlink="http://www.w3.org/1999/xlink" x="0px" y="0px"
	 viewBox="0 0 16.76 16.75" style="enable-background:new 0 0 16.76 16.75;" xml:space="preserve">
<style type="text/css">
	.st0{fill:#010202;}
</style>
<path class="st0" d="M12.97,0.27H3.75c-1.95,0-3.53,1.58-3.53,3.53v9.22c0,1.95,1.58,3.53,3.53,3.53h9.22
	c1.95,0,3.53-1.58,3.53-3.53V3.79C16.49,1.85,14.91,0.27,12.97,0.27z M15.37,12.67c0,1.51-1.23,2.74-2.74,2.74H4.09
	c-1.51,0-2.74-1.23-2.74-2.74V4.13c0-1.51,1.23-2.74,2.74-2.74h8.54c1.51,0,2.74,1.23,2.74,2.74V12.67z"/>
<circle class="st0" cx="11.73" cy="4.38" r="1"/>
<path class="st0" d="M8.39,5.37c-1.67,0-3.03,1.36-3.03,3.03c0,1.67,1.36,3.03,3.03,3.03c1.67,0,3.03-1.36,3.03-3.03
	C11.42,6.73,10.07,5.37,8.39,5.37z M8.39,10.37c-1.09,0-1.97-0.88-1.97-1.97c0-1.09,0.88-1.97,1.97-1.97c1.09,0,1.97,0.88,1.97,1.97
	C10.36,9.49,9.48,10.37,8.39,10.37z"/>
</svg>
