<?xml version="1.0" encoding="utf-8"?>
<!-- Generator: Adobe Illustrator 26.0.1, SVG Export Plug-In . SVG Version: 6.00 Build 0)  -->
<svg version="1.1" id="Layer_1" xmlns="http://www.w3.org/2000/svg" xmlns:xlink="http://www.w3.org/1999/xlink" x="0px" y="0px"
	 viewBox="0 0 13.87 13.05" style="enable-background:new 0 0 13.87 13.05;" xml:space="preserve">
<style type="text/css">
	.st0{fill:#010202;}
</style>
<path class="st0" d="M9.02,7.97c-0.04-0.01-0.09,0-0.13,0.02c-0.56,0.31-1.25,0.5-2,0.5c-0.75,0-1.44-0.19-2-0.5
	C4.85,7.96,4.8,7.96,4.76,7.97c-2.64,0.66-4.55,2.51-4.59,4.7c0.07,0.08,0.11,0.12,0.19,0.19c1.5,0,11.56,0,13.06,0
	c0.07-0.08,0.11-0.12,0.19-0.19C13.57,10.48,11.66,8.63,9.02,7.97z"/>
<circle class="st0" cx="6.89" cy="3.49" r="3.14"/>
<line class="st0" x1="3.56" y1="5.2" x2="3.56" y2="5.69"/>
</svg>
