<?xml version="1.0" encoding="utf-8"?>
<!-- Generator: Adobe Illustrator 26.0.1, SVG Export Plug-In . SVG Version: 6.00 Build 0)  -->
<svg version="1.1" id="Layer_1" xmlns="http://www.w3.org/2000/svg" xmlns:xlink="http://www.w3.org/1999/xlink" x="0px" y="0px"
	 viewBox="0 0 20.07 19.78" style="enable-background:new 0 0 20.07 19.78;" xml:space="preserve">
<style type="text/css">
	.st0{fill:#010202;}
</style>
<path class="st0" d="M7.67,0.21c-4.14,0-7.5,3.36-7.5,7.5s3.36,7.5,7.5,7.5s7.5-3.36,7.5-7.5S11.81,0.21,7.67,0.21z M7.67,12.93
	c-2.89,0-5.22-2.34-5.22-5.22s2.34-5.22,5.22-5.22s5.22,2.34,5.22,5.22S10.55,12.93,7.67,12.93z"/>
<path class="st0" d="M18.7,19.08l0.81-0.81c0.22-0.22,0.22-0.59,0-0.81l-6.55-6.55c-0.22-0.22-0.59-0.22-0.81,0l-0.81,0.81
	c-0.22,0.22-0.22,0.59,0,0.81l6.55,6.55C18.11,19.3,18.48,19.3,18.7,19.08z"/>
</svg>
