<?xml version="1.0" encoding="utf-8"?>
<!-- Generator: Adobe Illustrator 26.0.1, SVG Export Plug-In . SVG Version: 6.00 Build 0)  -->
<svg version="1.1" id="Layer_1" xmlns="http://www.w3.org/2000/svg" xmlns:xlink="http://www.w3.org/1999/xlink" x="0px" y="0px"
	 viewBox="0 0 19.74 15.55" style="enable-background:new 0 0 19.74 15.55;" xml:space="preserve">
<style type="text/css">
	.st0{fill:#010202;}
</style>
<path class="st0" d="M6.49,3.47L2.81,6.31C2.54,6.52,2.16,6.47,1.96,6.2L0.29,4.05C0.08,3.78,0.13,3.4,0.4,3.19l3.68-2.84
	c0.27-0.21,0.65-0.16,0.85,0.11L6.6,2.62C6.81,2.88,6.76,3.26,6.49,3.47z"/>
<path class="st0" d="M13.23,3.45l3.72,2.87c0.26,0.2,0.62,0.15,0.82-0.11l1.7-2.2c0.2-0.26,0.15-0.62-0.11-0.82l-3.72-2.87
	c-0.26-0.2-0.62-0.15-0.82,0.11l-1.7,2.2C12.92,2.89,12.97,3.26,13.23,3.45z"/>
<path class="st0" d="M13.11,0.22c-0.16,0-0.3,0.11-0.37,0.27c-0.51,1.22-1.61,2.06-2.89,2.06S7.48,1.71,6.97,0.49
	C6.9,0.33,6.76,0.22,6.6,0.22H4.38c-0.22,0-0.39,0.2-0.38,0.44l0.53,14.29c0.01,0.2,0.17,0.36,0.37,0.36h9.9
	c0.2,0,0.37-0.16,0.37-0.36l0.53-14.29c0.01-0.24-0.16-0.44-0.38-0.44H13.11z"/>
</svg>
