<?xml version="1.0" encoding="utf-8"?>
<!-- Generator: Adobe Illustrator 26.0.1, SVG Export Plug-In . SVG Version: 6.00 Build 0)  -->
<svg version="1.1" id="Layer_1" xmlns="http://www.w3.org/2000/svg" xmlns:xlink="http://www.w3.org/1999/xlink" x="0px" y="0px"
	 viewBox="0 0 22.59 22.5" style="enable-background:new 0 0 22.59 22.5;" xml:space="preserve">
<g>
	<path d="M4.68,14.94c-0.2,0.14-0.35,0.33-0.41,0.55l-0.75,2.9c-0.16,0.61,0.28,0.95,0.92,0.75l2.74-0.87
		c0.19-0.06,0.35-0.2,0.48-0.37L4.68,14.94z"/>
	<path d="M11.25,3.76c-4.19,0-7.58,3.39-7.58,7.58c0,4.19,3.39,7.58,7.58,7.58c4.19,0,7.58-3.39,7.58-7.58
		C18.83,7.15,15.43,3.76,11.25,3.76z M11.25,18.36c-3.88,0-7.03-3.15-7.03-7.03c0-3.88,3.15-7.03,7.03-7.03
		c3.88,0,7.03,3.15,7.03,7.03C18.27,15.22,15.13,18.36,11.25,18.36z"/>
	<circle cx="11.25" cy="11.34" r="5.73"/>
	<path d="M9.17,18.52c-0.05,0.24-0.02,0.48,0.09,0.68l1.49,2.6c0.31,0.55,0.86,0.49,1.18-0.11l1.35-2.53
		c0.09-0.17,0.12-0.39,0.09-0.6L9.17,18.52z"/>
	<path d="M4.04,9.24C3.8,9.2,3.55,9.22,3.36,9.33l-2.6,1.49C0.21,11.13,0.27,11.68,0.87,12l2.54,1.35c0.17,0.09,0.39,0.12,0.6,0.09
		L4.04,9.24z"/>
	<path d="M18.5,9.24c0.24-0.05,0.48-0.02,0.68,0.09l2.6,1.49c0.55,0.31,0.49,0.86-0.11,1.18l-2.54,1.35
		c-0.17,0.09-0.39,0.12-0.6,0.09L18.5,9.24z"/>
	<path d="M13.35,4.05c0.05-0.24,0.02-0.48-0.09-0.68l-1.49-2.6c-0.31-0.55-0.86-0.49-1.18,0.11L9.25,3.42
		C9.16,3.59,9.13,3.8,9.16,4.01L13.35,4.05z"/>
	<path d="M17.78,14.94c0.2,0.14,0.35,0.33,0.41,0.55l0.75,2.9c0.16,0.61-0.28,0.95-0.92,0.75l-2.74-0.87
		c-0.19-0.06-0.35-0.2-0.48-0.37L17.78,14.94z"/>
	<path d="M17.78,7.56c0.2-0.14,0.35-0.33,0.41-0.55l0.75-2.9c0.16-0.61-0.28-0.95-0.92-0.75l-2.74,0.87
		c-0.19,0.06-0.35,0.2-0.48,0.37L17.78,7.56z"/>
	<path d="M7.54,4.94C7.41,4.75,7.21,4.59,7,4.54L4.1,3.79C3.49,3.63,3.15,4.06,3.35,4.7l0.87,2.74c0.06,0.19,0.2,0.35,0.37,0.48
		L7.54,4.94z"/>
</g>
</svg>
